<svg xmlns="http://www.w3.org/2000/svg" viewBox="0 0 220 140" role="img" aria-label="TechFi Labs">
  <defs>
    <linearGradient id="g1" x1="0" y1="0" x2="1" y2="1">
      <stop offset="0%" stop-color="#9BE94A"/>
      <stop offset="100%" stop-color="#2F9C22"/>
    </linearGradient>
    <linearGradient id="g2" x1="0" y1="0" x2="0" y2="1">
      <stop offset="0%" stop-color="#A7F15B" stop-opacity="0.6"/>
      <stop offset="100%" stop-color="#ffffff" stop-opacity="0"/>
    </linearGradient>
  </defs>

  <path d="M42 118c-18 0-32-13-32-29 0-16 14-29 31-29 3-19 22-33 45-33 10 0 20 3 28 9 8-16 26-27 46-27 27 0 49 19 51 43 18 2 32 15 32 31 0 19-17 35-39 35H42z" fill="url(#g1)"/>
  <path d="M27 86c22 10 49 16 81 16 44 0 83-10 111-25 9 4 17 11 20 19-9 12-24 22-36 22H42c-14 0-26-8-31-19 4-5 10-9 16-13z" fill="url(#g2)"/>

  <g fill="#ffffff">
    <rect x="76" y="53" width="58" height="14" rx="2"/>
    <rect x="98" y="67" width="14" height="46"/>

    <rect x="121" y="53" width="59" height="14" rx="2"/>
    <polygon points="137,53 150,53 130,70 121,70"/>
    <rect x="121" y="79" width="46" height="14" rx="2"/>
    <rect x="121" y="93" width="14" height="20"/>
  </g>
</svg>
